<svg xmlns="http://www.w3.org/2000/svg" width="24" height="24" viewBox="0 0 24 24">
    <g fill="none" fill-rule="evenodd">
        <g fill="#727590" stroke="#727590">
            <g>
                <g>
                    <path stroke-width=".1" d="M19.662 0h-3.028c-.35 0-.634.284-.634.634 0 .35.284.634.634.634h3.028c.59 0 1.07.48 1.07 1.07v3.028c0 .35.284.634.634.634.35 0 .634-.284.634-.634V2.338C22 1.05 20.951 0 19.662 0zM.634 6c.35 0 .634-.284.634-.634V2.338c0-.59.48-1.07 1.07-1.07h3.028c.35 0 .634-.284.634-.634C6 .284 5.716 0 5.366 0H2.338C1.05 0 0 1.049 0 2.338v3.028C0 5.716.284 6 .634 6z" transform="translate(-164 -651) translate(0 632) translate(165 20)"/>
                    <path stroke-width=".2" d="M5.366 20.732H2.338c-.59 0-1.07-.48-1.07-1.07v-3.028c0-.35-.284-.634-.634-.634-.35 0-.634.284-.634.634v3.028C0 20.95 1.049 22 2.338 22h3.028c.35 0 .634-.284.634-.634 0-.35-.284-.634-.634-.634zM21.366 16c-.35 0-.634.284-.634.634v3.028c0 .59-.48 1.07-1.07 1.07h-3.028c-.35 0-.634.284-.634.634 0 .35.284.634.634.634h3.028C20.952 22 22 20.951 22 19.662v-3.028c0-.35-.284-.634-.634-.634z" transform="translate(-164 -651) translate(0 632) translate(165 20)"/>
                    <path stroke-width=".1" d="M13.719 5.437h2.28c.31 0 .564.254.564.565v2.28c0 .396.321.718.718.718.397 0 .719-.322.719-.719v-2.28C18 4.899 17.102 4 15.998 4h-2.28c-.396 0-.718.322-.718.719 0 .397.322.718.719.718zM3 6.002v2.28c0 .396.322.718.719.718.397 0 .718-.322.718-.719v-2.28c0-.31.254-.564.565-.564h2.28c.396 0 .718-.321.718-.718C8 4.322 7.678 4 7.281 4h-2.28C3.899 4 3 4.898 3 6.002z" transform="translate(-164 -651) translate(0 632) translate(165 20)"/>
                    <path stroke-width=".2" d="M7.281 17.563h-2.28c-.31 0-.564-.254-.564-.565v-2.28c0-.396-.321-.718-.718-.718-.397 0-.719.322-.719.719v2.28C3 18.101 3.898 19 5.002 19h2.28c.396 0 .718-.322.718-.719 0-.397-.322-.718-.719-.718zM18 16.998v-2.28c0-.396-.322-.718-.719-.718-.397 0-.718.322-.718.719v2.28c0 .31-.254.564-.565.564h-2.28c-.396 0-.718.321-.718.718 0 .397.322.719.719.719h2.28C17.101 19 18 18.102 18 16.998z" transform="translate(-164 -651) translate(0 632) translate(165 20)"/>
                    <path stroke-width=".5" d="M0 11.5c0 .276.29.5.647.5h20.706c.357 0 .647-.224.647-.5s-.29-.5-.647-.5H.647C.29 11 0 11.224 0 11.5z" transform="translate(-164 -651) translate(0 632) translate(165 20)"/>
                </g>
            </g>
        </g>
    </g>
</svg>
