<svg xmlns="http://www.w3.org/2000/svg" width="19" height="24" viewBox="0 0 19 24">
    <g fill="none" fill-rule="evenodd">
        <g fill="#727590" fill-rule="nonzero">
            <g>
                <g>
                    <path d="M17.295 4.173C15.503 1.52 12.661 0 9.5 0 6.34 0 3.498 1.521 1.705 4.173-.079 6.81-.49 10.15.601 13.103c.292.805.756 1.588 1.377 2.322l6.897 8.28c.156.187.385.295.625.295s.47-.108.625-.295l6.896-8.278c.623-.738 1.087-1.52 1.376-2.32 1.094-2.956.682-6.296-1.102-8.934zm-.435 8.347c-.224.617-.588 1.227-1.083 1.813l-.004.005L9.5 21.867l-6.276-7.534c-.495-.586-.86-1.196-1.085-1.819-.903-2.44-.56-5.202.917-7.387C4.538 2.935 6.886 1.678 9.5 1.678s4.962 1.257 6.444 3.45c1.478 2.184 1.82 4.946.916 7.392z" transform="translate(-308 -651) translate(0 632) translate(308 19)"/>
                    <path d="M9.5 5C7.019 5 5 7.019 5 9.5S7.019 14 9.5 14 14 11.981 14 9.5 11.981 5 9.5 5zm0 7.393c-1.595 0-2.893-1.298-2.893-2.893 0-1.595 1.298-2.893 2.893-2.893 1.595 0 2.893 1.298 2.893 2.893 0 1.595-1.298 2.893-2.893 2.893z" transform="translate(-308 -651) translate(0 632) translate(308 19)"/>
                </g>
            </g>
        </g>
    </g>
</svg>
