<svg xmlns="http://www.w3.org/2000/svg" width="23" height="24" viewBox="0 0 23 24">
    <g fill="none" fill-rule="evenodd">
        <g fill="#727590">
            <g>
                <g>
                    <path fill-rule="nonzero" d="M21.891 12.31c-.096-.197-.096-.423 0-.62l.894-1.832c.498-1.02.103-2.235-.898-2.767l-1.798-.955c-.194-.103-.327-.286-.365-.503l-.352-2.007c-.195-1.118-1.228-1.87-2.35-1.71l-2.016.285c-.217.03-.432-.04-.59-.192L12.953.592c-.815-.79-2.091-.79-2.906 0L8.584 2.009c-.158.153-.373.223-.59.192l-2.016-.285c-1.122-.16-2.155.592-2.35 1.71l-.352 2.007c-.038.217-.171.4-.365.503l-1.798.955C.112 7.623-.283 8.84.215 9.858l.894 1.831c.096.198.096.424 0 .622l-.894 1.831c-.498 1.02-.103 2.235.898 2.767l1.798.955c.194.103.327.286.365.503l.352 2.008c.178 1.017 1.05 1.73 2.05 1.73.1 0 .2-.006.3-.02l2.016-.286c.217-.03.432.04.59.192l1.463 1.417c.408.395.93.592 1.453.592s1.045-.197 1.453-.592l1.463-1.417c.158-.153.373-.223.59-.192l2.016.285c1.122.16 2.155-.592 2.35-1.71l.352-2.007c.038-.217.171-.4.365-.503l1.798-.955c1.001-.532 1.396-1.747.898-2.767l-.894-1.831zm-.652 3.376l-1.798.955c-.573.305-.966.847-1.079 1.487l-.351 2.007c-.067.378-.416.632-.796.579l-2.015-.286c-.643-.09-1.279.116-1.745.568l-1.464 1.417c-.275.267-.707.267-.983 0l-1.463-1.417c-.394-.382-.91-.589-1.447-.589-.099 0-.198.007-.298.021l-2.015.286c-.38.053-.73-.2-.796-.579l-.351-2.007c-.113-.64-.506-1.182-1.08-1.487l-1.797-.955c-.34-.18-.473-.591-.304-.936l.894-1.831c.285-.584.285-1.254 0-1.838l-.894-1.83c-.169-.346-.035-.757.304-.937l1.798-.955c.573-.305.966-.847 1.078-1.487l.352-2.007c.066-.378.416-.632.795-.579l2.016.286c.643.09 1.279-.116 1.745-.568l1.463-1.417c.276-.267.708-.267.983 0l1.463 1.417c.467.452 1.103.659 1.746.568l2.015-.286c.38-.054.73.2.796.579l.351 2.007c.112.64.506 1.182 1.079 1.487l1.798.955c.339.18.472.591.304.936l-.894 1.831c-.285.584-.285 1.254 0 1.838l.894 1.83c.168.346.035.757-.304.937z" transform="translate(-97 -651) translate(0 632) translate(97 19)"/>
                    <path d="M16.788 7.212c-.283-.283-.74-.283-1.023 0l-9.553 9.553c-.283.282-.283.74 0 1.023.141.141.327.212.512.212s.37-.07.511-.212l9.553-9.553c.283-.282.283-.74 0-1.023z" transform="translate(-97 -651) translate(0 632) translate(97 19)"/>
                    <path fill-rule="nonzero" d="M8.5 6C7.122 6 6 7.122 6 8.5S7.122 11 8.5 11 11 9.878 11 8.5 9.878 6 8.5 6zm0 3.636c-.627 0-1.136-.51-1.136-1.136 0-.627.51-1.136 1.136-1.136.627 0 1.136.51 1.136 1.136 0 .627-.51 1.136-1.136 1.136zM14.5 14c-1.378 0-2.5 1.122-2.5 2.5s1.122 2.5 2.5 2.5 2.5-1.122 2.5-2.5-1.122-2.5-2.5-2.5zm0 3.636c-.627 0-1.136-.51-1.136-1.136 0-.627.51-1.136 1.136-1.136.627 0 1.136.51 1.136 1.136 0 .627-.51 1.136-1.136 1.136z" transform="translate(-97 -651) translate(0 632) translate(97 19)"/>
                </g>
            </g>
        </g>
    </g>
</svg>
